# xmcd
#
# Track frame offsets:
#	150
#	14800
#	26000
#	43850
#	61750
#	75500
#	83400
#	94625
#	104100
#	113975
#	125825
#	142075
#	152500
#	172425
#	186000
#	200775
#	213825
#	226575
#	241100
#	253925
#	268325
#	282950
#
# Disc length: 3886 seconds
#
# Revision: 1
# Processed by: cddbd v1.5.2PL0 Copyright (c) Steve Scherf et al.
# Submitted via: audiograbber 1.83.01
#
DISCID=420f2c16
DTITLE=Various Artist - An Hour Of Country Guitar
DYEAR=1996
DGENRE=Country
TTITLE0=Gentle On My Mind
TTITLE1=Help Me Make It Through The Night
TTITLE2=Lovin' Her Was Easier
TTITLE3=Sunday Morning Coming Down
TTITLE4=Top Of The World
TTITLE5=Deep In the Heart Of Texas
TTITLE6=San Antonio Rose
TTITLE7=Lonesome Steel Guitar Blues
TTITLE8=I'll Fly Away
TTITLE9=Son Of A Preacher Man
TTITLE10=Rhinestone Cowboy
TTITLE11=Mr Sandman
TTITLE12=Rose Of Cimarron
TTITLE13=Some Broken Hearts Never Mend
TTITLE14=Take Me Home Country Roads
TTITLE15=Girl On The Billboard
TTITLE16=Red River Valley
TTITLE17=On Top Of Old Smokey
TTITLE18=Cowboy's Lament
TTITLE19=Soft Rain
TTITLE20=The Tips Of My Fingers
TTITLE21=Banks Of The Ohio
EXTD=
EXTT0=
EXTT1=
EXTT2=
EXTT3=
EXTT4=
EXTT5=
EXTT6=
EXTT7=
EXTT8=
EXTT9=
EXTT10=
EXTT11=
EXTT12=
EXTT13=
EXTT14=
EXTT15=
EXTT16=
EXTT17=
EXTT18=
EXTT19=
EXTT20=
EXTT21=
PLAYORDER=
